<svg id="Capa_1" enable-background="new 0 0 512 512" height="30px" viewBox="0 0 512 512" width="30px" xmlns="http://www.w3.org/2000/svg" xmlns:xlink="http://www.w3.org/1999/xlink"><linearGradient id="SVGID_1_" gradientUnits="userSpaceOnUse" x1="256" x2="256" y1="512" y2="0"><stop offset="0" stop-color="#ffc2cc"/><stop offset="1" stop-color="#fff2f4"/></linearGradient><linearGradient id="SVGID_2_" gradientUnits="userSpaceOnUse" x1="256" x2="256" y1="407" y2="105"><stop offset="0" stop-color="#ffa68d"/><stop offset="1" stop-color="#fd3a84"/></linearGradient><g><g><circle cx="256" cy="256" fill="url(#SVGID_1_)" r="256"/></g><g><g><path d="m384.099 221.41-17.733-8.882c-2.494-1.249-5.438-1.249-7.932 0l-13.768 6.896-13.768-6.896c-2.494-1.249-5.438-1.249-7.932 0l-13.768 6.896-13.768-6.896c-2.494-1.249-5.438-1.249-7.931 0l-17.733 8.882c-3.005 1.509-4.901 4.58-4.901 7.945v159.88c0 3.365 1.896 6.436 4.901 7.945l17.733 8.882c2.494 1.249 5.438 1.249 7.931 0l13.768-6.896 13.768 6.896c2.494 1.249 5.438 1.249 7.932 0l13.768-6.896 13.768 6.896c1.247.625 2.606.937 3.966.937s2.719-.312 3.966-.937l17.733-8.882c3.005-1.509 4.901-4.58 4.901-7.945v-159.88c0-3.365-1.896-6.436-4.901-7.945zm-39.432 34.592c4.897 0 8.867 3.976 8.867 8.882 0 4.905-3.97 8.882-8.867 8.882s-8.867-3.977-8.867-8.882c0-4.906 3.97-8.882 8.867-8.882zm0 106.587h-35.467c-4.901 0-8.867-3.973-8.867-8.882s3.966-8.882 8.867-8.882h35.467c4.901 0 8.867 3.973 8.867 8.882-.001 4.909-3.966 8.882-8.867 8.882zm-44.334-44.411c0-4.906 3.97-8.882 8.867-8.882s8.867 3.976 8.867 8.882c0 4.905-3.97 8.882-8.867 8.882s-8.867-3.977-8.867-8.882zm49.252 7.39c-4.149 2.755-9.624 1.558-12.296-2.463l-35.467-53.293c-2.719-4.085-1.619-9.594 2.459-12.317 4.087-2.724 9.568-1.631 12.296 2.463l35.467 53.293c2.719 4.085 1.619 9.593-2.459 12.317zm-137.918 10.374h35.467v-71.058h-35.467zm26.6-159.88c-4.892 0-8.867 3.981-8.867 8.882s3.974 8.882 8.867 8.882 8.867-3.981 8.867-8.882-3.975-8.882-8.867-8.882zm53.2 17.765c4.113 0 8.226.971 11.897 2.81l5.836 2.923 5.836-2.923c3.671-1.839 7.784-2.81 11.897-2.81 3.035 0 6.009.697 8.867 1.713v-5.852l3.931 2.638c4.078 2.731 9.58 1.628 12.304-2.437 2.719-4.077 1.637-9.594-2.433-12.326-1.774-1.184-113.549-75.829-106.417-71.066-2.979-1.995-6.858-1.995-9.836 0-1.663 1.11-100.019 66.794-106.418 71.067-4.069 2.732-5.151 8.249-2.433 12.325 2.726 4.068 8.229 5.167 12.304 2.437l3.931-2.638v137.372c0 4.91 3.966 8.882 8.867 8.882h44.333v-79.94c0-4.91 3.966-8.882 8.867-8.882h44.333v-17.764c0-10.149 5.628-19.274 14.685-23.828l17.751-8.891c3.672-1.839 7.785-2.81 11.898-2.81zm-53.2 17.764c-14.668 0-26.6-11.953-26.6-26.647s11.932-26.647 26.6-26.647 26.6 11.953 26.6 26.647-11.932 26.647-26.6 26.647zm-111.336-34.028c-.445.297-.426.285 0 0zm208.869-63.677c0-4.909-3.966-8.882-8.867-8.882h-35.467c-4.139 0-7.454 2.893-8.434 6.731l52.767 35.204v-33.053z" fill="url(#SVGID_2_)"/></g></g></g></svg>